<?xml version="1.0" encoding="utf-8"?>
<!-- Generator: Adobe Illustrator 16.0.0, SVG Export Plug-In . SVG Version: 6.00 Build 0)  -->
<!DOCTYPE svg PUBLIC "-//W3C//DTD SVG 1.1//EN" "http://www.w3.org/Graphics/SVG/1.1/DTD/svg11.dtd">
<svg version="1.1" id="Layer_1" xmlns="http://www.w3.org/2000/svg" xmlns:xlink="http://www.w3.org/1999/xlink" x="0px" y="0px"
	 width="290px" height="269.268px" viewBox="0 0 290 269.268" enable-background="new 0 0 290 269.268" xml:space="preserve">
<path fill-rule="evenodd" clip-rule="evenodd" fill="#03ADD8" d="M68.48,140.281c-4.649-11.479-9.121-22.521-13.835-34.162
	c11.288,0,21.872,0,32.348,0c-1.06-8.374-2.071-16.358-3.179-25.116c-1.797-0.502-4.485-1.189-7.133-2.007
	c-4.275-1.318-8.638-2.448-12.752-4.166c-4.095-1.709-9.084-3.472-9.189-8.761c-0.107-5.411,4.975-7.183,9.054-8.794
	c5.383-2.127,10.968-3.935,16.625-5.112c4.824-1.004,7.168-3.072,9.096-7.931c3.965-9.992,8.693-19.835,14.369-28.955
	c6.483-10.418,13.838-12.383,24.155-5.946c11.43,7.131,21.405,7.196,32.825-0.007c10.203-6.437,17.792-4.506,24.144,5.942
	c6.005,9.879,10.49,20.704,15.317,31.262c1.192,2.607,2.082,4.222,5.258,4.904c6.303,1.354,12.452,3.465,18.604,5.453
	c2.028,0.654,3.988,1.712,5.771,2.897c5.883,3.912,5.994,8.815-0.137,12.445c-4.092,2.422-8.715,4.034-13.24,5.609
	c-3.898,1.358-7.994,2.152-11.684,3.113c-0.971,8.335-1.904,16.367-2.896,24.893c10.24,0,20.939,0,32.409,0
	c-3.759,10.379-7.003,20.133-10.866,29.635c-1.691,4.16-1.148,6.136,2.734,8.683c10.593,6.948,16.844,17.39,20.715,29.189
	c5.984,18.235,8.213,37.075,7.125,56.175c-1.217,21.345-16.279,36.106-37.625,36.26c-47.98,0.345-95.967,0.344-143.948,0.007
	c-22.027-0.154-37.025-15.399-37.933-38.149c-0.707-17.723,1.277-35.273,6.749-52.26C46.099,160.674,53.98,148.257,68.48,140.281z
	 M115.573,85.596c-5.43,0.368-9.077,0.607-12.722,0.865c-3.269,0.232-3.962,2.336-2.855,4.833
	c2.539,5.723,5.082,11.485,8.206,16.896c3.424,5.929,9.58,6.914,15.705,6.576c6.288-0.347,11.67-2.743,14.1-9.287
	c0.867-2.337,1.545-4.781,2.707-6.964c1.816-3.409,5.502-3.425,7.457-0.131c0.755,1.271,1.216,2.732,1.71,4.143
	c2.992,8.543,7.493,12.047,15.997,12.401c8.248,0.344,13.57-3.055,17.252-10.952c1.807-3.876,3.82-7.661,5.48-11.598
	c1.221-2.896,1.363-5.878-2.94-5.98c-7.14-0.171-14.307-0.337-21.425,0.098c-10.035,0.613-19.843,3.777-30.147,1.405
	C127.51,86.384,120.619,86.186,115.573,85.596z M184.507,145.86c-9.312,5.513-19.418,7.189-24.915,16.449
	c-2.196,3.699-5.445,6.774-7.618,10.483c-1.198,2.045-1.963,4.962-1.544,7.23c2.023,10.957,4.494,21.831,6.846,32.727
	c2.236,10.367,4.521,20.726,6.785,31.088c0.284-0.012,0.568-0.023,0.854-0.034C171.357,211.592,177.801,179.381,184.507,145.86z
	 M104.432,145.879c6.7,33.5,13.14,65.706,19.847,99.243c0.796-2.707,1.292-4.063,1.591-5.463
	c3.479-16.269,6.118-32.773,10.665-48.736c3.119-10.95,0.826-18.726-5.959-27.58C123.754,154.442,114.311,151.495,104.432,145.879z"
	/>
</svg>
