<?xml version="1.0" encoding="utf-8"?>
<!-- Generator: Adobe Illustrator 16.0.0, SVG Export Plug-In . SVG Version: 6.00 Build 0)  -->
<!DOCTYPE svg PUBLIC "-//W3C//DTD SVG 1.1//EN" "http://www.w3.org/Graphics/SVG/1.1/DTD/svg11.dtd">
<svg version="1.1" id="Capa_1" xmlns="http://www.w3.org/2000/svg" xmlns:xlink="http://www.w3.org/1999/xlink" x="0px" y="0px"
	 width="512px" height="512px" viewBox="0 0 512 512" enable-background="new 0 0 512 512" xml:space="preserve">
<rect fill="#FF9100" stroke="#000000" stroke-miterlimit="10" width="512" height="512"/>
<g>
	<circle fill="#FABE2C" cx="256" cy="256" r="256"/>
	<path fill="#FF9100" d="M512,256C512,115.166,396.832,0,256,0v512C396.832,512,512,396.832,512,256z"/>
	<circle fill="#FED843" cx="256" cy="256" r="195"/>
	<path fill="#FABE2C" d="M451,256c0-107.52-87.48-195-195-195v390C363.52,451,451,363.52,451,256z"/>
	<path fill="#FABE2C" d="M384.394,214.281c-1.771-5.435-6.46-9.39-12.113-10.21l-71.046-10.327l-31.786-64.38
		c-2.521-5.127-7.983-7.69-13.447-7.69s-10.928,2.563-13.447,7.69l-31.787,64.38l-71.045,10.327
		c-5.654,0.82-10.342,4.775-12.114,10.195c-1.758,5.435-0.293,11.396,3.794,15.381l51.416,50.126l-12.129,70.768
		c-0.967,5.625,1.348,11.309,5.962,14.663c4.66,3.384,10.794,3.792,15.791,1.144L256,332.948l63.56,33.397
		c5.039,2.666,11.191,2.241,15.791-1.143c4.614-3.354,6.93-9.038,5.963-14.663l-12.145-70.767l51.431-50.127
		C384.688,225.663,386.151,219.701,384.394,214.281z"/>
	<path fill="#FF9100" d="M335.351,365.204c4.614-3.354,6.93-9.038,5.963-14.663l-12.145-70.768l51.431-50.126
		c4.088-3.984,5.553-9.946,3.794-15.366c-1.771-5.435-6.46-9.39-12.113-10.21l-71.046-10.327l-31.786-64.38
		c-2.521-5.127-7.983-7.69-13.447-7.69v211.274l63.56,33.397C324.599,369.014,330.751,368.588,335.351,365.204z"/>
</g>
</svg>
